# Blender v2.81 (sub 16) OBJ File: 'maze_floor_v2.blend'
# www.blender.org
mtllib Geometry/Maze/floor.mtl
g floor.002
v -57.000000 -0.000000 0.000000
v -57.000000 -0.000000 17.000000
v -52.000000 -0.000000 17.000000
v -52.000000 -0.000000 40.000000
v -57.000000 -0.000000 40.000000
v -57.000000 0.000000 57.000000
v -40.000000 0.000000 57.000000
v -40.000000 -0.000000 52.000000
v -17.000000 -0.000000 52.000000
v -17.000000 0.000000 57.000000
v 0.000000 0.000000 57.000000
v 0.000000 -0.000000 40.000000
v -5.000000 -0.000000 40.000000
v -5.000000 -0.000000 17.000000
v 0.000000 -0.000000 17.000000
v 0.000000 -0.000000 0.000000
v -17.000000 -0.000000 0.000000
v -17.000000 -0.000000 5.000000
v -40.000000 -0.000000 5.000000
v -40.000000 -0.000000 0.000000
v -40.188068 -0.000002 12.054086
v -32.000000 -0.000000 12.000000
v -32.000000 0.000000 20.000000
v -37.000000 0.000000 20.000000
v -37.000000 -0.000000 25.000000
v -45.000000 -0.000000 25.000000
v -45.000000 -0.000000 17.000000
v -40.000000 -0.000000 17.000000
v -26.000000 -10.000000 12.000000
v -26.000000 0.000000 20.000000
v -20.000000 0.000000 20.000000
v -20.000000 -0.000000 25.000000
v -12.000000 -0.000000 25.000000
v -12.000000 -0.000000 17.000000
v -17.000000 -0.000000 17.000000
v -17.000000 -0.000000 12.000000
v -26.000000 -0.000000 12.000000
v -20.000000 0.000000 32.000000
v -12.000000 0.000000 32.000000
v -12.000000 -0.000000 40.000000
v -17.000000 -0.000000 40.000000
v -17.000000 0.000000 45.000000
v -26.000000 0.000000 45.000000
v -26.000000 -0.000000 37.000000
v -20.000000 -0.000000 37.000000
v -33.000000 -0.000000 37.000000
v -33.000000 0.000000 45.000000
v -40.000000 0.000000 45.000000
v -40.000000 -0.000000 40.000000
v -45.000000 -0.000000 40.000000
v -45.000000 0.000000 32.000000
v -37.000000 0.000000 32.000000
v -37.000000 -0.000000 37.000000
vt 8.130583 17.717632
vt 8.130582 16.166294
vt 13.405133 17.717628
vt 8.130579 1.583706
vt 13.405133 0.032369
vt 11.853792 5.306920
vt 0.994422 16.166294
vt 0.994422 17.717632
vt -4.280131 17.717634
vt -4.280133 12.443080
vt -2.728793 12.443080
vt 8.130579 3.755582
vt 9.681919 5.306920
vt 9.681919 9.960936
vt 11.853792 12.443079
vt 8.130581 13.994417
vt 5.338171 13.994419
vt 3.476564 13.994419
vt 0.936069 13.977638
vt -2.728792 5.306921
vt -4.280131 0.032370
vt 0.994421 1.583709
vt -0.556918 12.443080
vt 0.994421 12.443080
vt 5.338171 11.512276
vt 3.476563 11.512276
vt 13.405131 12.443077
vt 8.130581 12.443079
vt 9.681919 12.443077
vt -0.556918 9.960936
vt 7.199777 9.960937
vt 7.199777 11.512276
vt 1.925224 9.960936
vt 1.925224 11.512276
vt 5.338168 3.755582
vt 3.166294 3.755582
vt 9.681919 7.789062
vt 7.199776 7.789062
vt 5.338170 6.237725
vt 1.925224 7.789062
vt -0.556918 7.789063
vt -0.556919 5.306921
vt 1.925224 6.237725
vt 3.166296 6.237725
vt 13.405131 5.306921
vt 8.130579 5.306920
vt 7.199776 6.237723
vt 0.994421 3.755582
vt 0.994421 5.306921
vt -4.280131 5.306921
vt 8.130581 0.032367
vt 0.994421 0.032370
vn 0.0000 1.0000 -0.0000
usemtl Material.011
s off
f 17/1/1 18/2/1 16/3/1
f 9/4/1 11/5/1 13/6/1
f 19/7/1 20/8/1 1/9/1
f 2/10/1 3/11/1 1/9/1
f 42/12/1 9/4/1 40/13/1
f 33/14/1 13/6/1 14/15/1
f 36/16/1 18/2/1 37/17/1
f 37/17/1 19/7/1 22/18/1
f 22/18/1 19/7/1 21/19/1
f 4/20/1 6/21/1 8/22/1
f 27/23/1 28/24/1 21/19/1
f 30/25/1 37/17/1 22/18/1
f 30/25/1 22/18/1 23/26/1
f 14/15/1 15/27/1 16/3/1
f 36/16/1 35/28/1 34/29/1
f 34/29/1 33/14/1 14/15/1
f 14/15/1 36/16/1 34/29/1
f 18/2/1 19/7/1 37/17/1
f 3/11/1 19/7/1 1/9/1
f 26/30/1 27/23/1 3/11/1
f 27/23/1 21/19/1 3/11/1
f 26/30/1 3/11/1 4/20/1
f 32/31/1 31/32/1 30/25/1
f 23/26/1 25/33/1 30/25/1
f 24/34/1 25/33/1 23/26/1
f 43/35/1 47/36/1 8/22/1
f 13/6/1 33/14/1 39/37/1
f 39/37/1 33/14/1 32/31/1
f 32/31/1 30/25/1 38/38/1
f 18/2/1 36/16/1 14/15/1
f 38/38/1 39/37/1 32/31/1
f 44/39/1 38/38/1 30/25/1
f 52/40/1 26/30/1 51/41/1
f 51/41/1 26/30/1 4/20/1
f 13/6/1 39/37/1 40/13/1
f 3/11/1 21/19/1 19/7/1
f 50/42/1 51/41/1 4/20/1
f 52/40/1 53/43/1 46/44/1
f 43/35/1 44/39/1 46/44/1
f 44/39/1 52/40/1 46/44/1
f 43/35/1 46/44/1 47/36/1
f 11/5/1 12/45/1 13/6/1
f 40/13/1 9/4/1 13/6/1
f 41/46/1 42/12/1 40/13/1
f 44/39/1 45/47/1 38/38/1
f 48/48/1 49/49/1 50/42/1
f 48/48/1 50/42/1 4/20/1
f 5/50/1 6/21/1 4/20/1
f 18/2/1 14/15/1 16/3/1
f 43/35/1 9/4/1 42/12/1
f 25/33/1 52/40/1 44/39/1
f 25/33/1 26/30/1 52/40/1
f 47/36/1 48/48/1 8/22/1
f 9/4/1 43/35/1 8/22/1
f 48/48/1 4/20/1 8/22/1
f 11/5/1 9/4/1 10/51/1
f 7/52/1 8/22/1 6/21/1
f 25/33/1 44/39/1 30/25/1
l 29 30
